# xmcd
#
# Track frame offsets:
#	150
#	11797
#	24545
#	34249
#	46185
#	57506
#	68344
#	78488
#	90883
#	101471
#	114453
#	123480
#	135445
#	146375
#	158363
#	168092
#	180520
#	192814
#	202360
#	211441
#
# Disc length: 2977 seconds
#
# Revision: 1
# Processed by: cddbd v1.4PL0 Copyright (c) Steve Scherf et al.
# Submitted via: audiograbber 1.82.02
#
DISCID=020b9f14
DTITLE=Johnny Tillotson - Platinum Collection
DYEAR=2003
DGENRE=Oldies
TTITLE0=Poetry In Motion
TTITLE1=It Keeps Right On A-Hurtin
TTITLE2=Without You
TTITLE3=Talk Back Trembling Lips
TTITLE4=Worried Guy (I'm A Worried Guy)
TTITLE5=Dreamy Eyes
TTITLE6=Angel
TTITLE7=Jimmy's Girl
TTITLE8=Well I'm Your Man
TTITLE9=I'm So Lonesome I Could Cry
TTITLE10=She Understands Me
TTITLE11=Heartaches By The Number
TTITLE12=All I Have To Do Is Dream
TTITLE13=Donna
TTITLE14=Wind Me Up And Let Me Go
TTITLE15=Then You Can Tell Me Goodbye
TTITLE16=Let It Be Me
TTITLE17=A Very Good Year For Girls
TTITLE18=(Waid Till You See My) Gidget
TTITLE19=Rhythm Of The Rain
EXTD=
EXTT0=
EXTT1=
EXTT2=
EXTT3=
EXTT4=
EXTT5=
EXTT6=
EXTT7=
EXTT8=
EXTT9=
EXTT10=
EXTT11=
EXTT12=
EXTT13=
EXTT14=
EXTT15=
EXTT16=
EXTT17=
EXTT18=
EXTT19=
PLAYORDER=
